<svg xmlns="http://www.w3.org/2000/svg" xmlns:xlink="http://www.w3.org/1999/xlink" width="253.8" height="115.026" viewBox="0 0 253.8 115.026">
  <defs>
    <clipPath id="clip-path">
      <rect id="사각형_120" data-name="사각형 120" width="190.35" height="53.114"/>
    </clipPath>
    <clipPath id="clip-path-2">
      <rect id="사각형_121" data-name="사각형 121" width="253.8" height="61.911"/>
    </clipPath>
  </defs>
  <g id="LOGO" transform="translate(-144.979 -210.205)">
    <g id="그룹_3" data-name="그룹 3" transform="translate(176.704 210.205)">
      <g id="그룹_2" data-name="그룹 2" clip-path="url(#clip-path)">
        <path id="패스_2" data-name="패스 2" d="M26.836,90.96A13.168,13.168,0,1,1,13.668,77.792,13.168,13.168,0,0,1,26.836,90.96" transform="translate(-0.329 -51.185)"/>
        <circle id="타원_1" data-name="타원 1" cx="13.168" cy="13.168" r="13.168" transform="translate(0.171 26.607)" stroke="#fff" stroke-width="1"/>
        <line id="선_11" data-name="선 11" x1="176.487" y2="36.597" transform="translate(13.168 3.349)" fill="#fff"/>
        <line id="선_12" data-name="선 12" x1="176.487" y2="36.597" transform="translate(13.168 3.349)" fill="none" stroke="#000" stroke-width="20"/>
      </g>
    </g>
    <g id="그룹_5" data-name="그룹 5" transform="translate(144.979 263.319)">
      <g id="그룹_4" data-name="그룹 4" clip-path="url(#clip-path-2)">
        <path id="패스_3" data-name="패스 3" d="M249.371.5H5.067A4.567,4.567,0,0,0,.5,5.067V57.482a4.567,4.567,0,0,0,4.567,4.567h244.3a4.567,4.567,0,0,0,4.567-4.567V5.067A4.567,4.567,0,0,0,249.371.5M228.594,31.094a15.387,15.387,0,0,1-15.387,15.387H41.231a15.387,15.387,0,0,1,0-30.775H213.206A15.387,15.387,0,0,1,228.594,31.094Z" transform="translate(-0.319 -0.319)"/>
        <path id="패스_4" data-name="패스 4" d="M249.371.5H5.067A4.567,4.567,0,0,0,.5,5.067V57.482a4.567,4.567,0,0,0,4.567,4.567h244.3a4.567,4.567,0,0,0,4.567-4.567V5.067A4.567,4.567,0,0,0,249.371.5ZM228.594,31.094a15.387,15.387,0,0,1-15.387,15.387H41.231a15.387,15.387,0,0,1,0-30.775H213.206A15.387,15.387,0,0,1,228.594,31.094Z" transform="translate(-0.319 -0.319)" stroke="#fff" stroke-width="1"/>
      </g>
    </g>
  </g>
</svg>
