<svg xmlns="http://www.w3.org/2000/svg" width="654" height="80" viewBox="0 0 654 80">
  <g id="facebook_login" data-name="facebook login" transform="translate(-48 -1204)">
    <rect id="사각형_315" data-name="사각형 315" width="654" height="80" rx="20" transform="translate(48 1204)" fill="#4b5fa2"/>
    <text id="페이스북으로_시작하기" data-name="페이스북으로 시작하기" transform="translate(375 1257)" fill="#fff" font-size="30" font-family="NotoSansCJKkr-Medium, Noto Sans CJK KR" font-weight="500"><tspan x="-141" y="0">페이스북으로 시작하기</tspan></text>
    <text id="페이스북으로_시작하기-2" data-name="페이스북으로 시작하기" transform="translate(375 1257)" fill="#fff" font-size="30" font-family="NotoSansCJKkr-Medium, Noto Sans CJK KR" font-weight="500"><tspan x="-141" y="0">페이스북으로 시작하기</tspan></text>
    <path id="Icon_awesome-facebook-square" data-name="Icon awesome-facebook-square" d="M28.125,2.25H3.375A3.375,3.375,0,0,0,0,5.625v24.75A3.375,3.375,0,0,0,3.375,33.75h9.65V23.041H8.6V18h4.43V14.158c0-4.37,2.6-6.784,6.586-6.784a26.836,26.836,0,0,1,3.9.34V12h-2.2a2.521,2.521,0,0,0-2.842,2.723V18h4.836l-.773,5.041H18.475V33.75h9.65A3.375,3.375,0,0,0,31.5,30.375V5.625A3.375,3.375,0,0,0,28.125,2.25Z" transform="translate(78 1226)" fill="#fff"/>
  </g>
</svg>
